# xmcd
#
# Track frame offsets: 
#        150
#        34826
#        70658
#        115878
#        130613
#        151211
#        185474
#        219255
#        248356
#        272851
#
# Disc length: 3905 seconds
#
# Revision: 7
# Processed by: cddbd v1.5.2PL0 Copyright (c) Steve Scherf et al.
# Submitted via: ExactAudioCopy v0.95b4
#
DISCID=7f0f3f0a
DTITLE=Various Artist - Floatation
DYEAR=2001
DGENRE=Ambient
TTITLE0=Neil Sparkes - Miramar
TTITLE1=Adham Shaikh - Sabadhi
TTITLE2=Ishq - Sol
TTITLE3=Mystical Sun - River Goddess
TTITLE4=Mere Mortals - Lyricism of Symmetry
TTITLE5=Steve Roach - This Life
TTITLE6=Makyo - Clarity (Melting Snow Mix)
TTITLE7=Shpongle - Saudade pt. II
TTITLE8=Eat Static - Caveman
TTITLE9=Circular - Drifting
EXTD=http://www.cosmophilia.com/htm/ICHILLCD12.html YEAR: 2001
EXTT0=
EXTT1=
EXTT2=
EXTT3=
EXTT4=
EXTT5=
EXTT6=
EXTT7=
EXTT8=
EXTT9=
PLAYORDER=
